<?xml version="1.0" encoding="UTF-8"?>
<svg id="Layer_1" data-name="Layer 1" xmlns="http://www.w3.org/2000/svg" xmlns:xlink="http://www.w3.org/1999/xlink" viewBox="0 0 849.62 350.45" width="200px">
  <defs>
    <style>
      .cls-1 {
        stroke-dasharray: 0 0 5.74 16.93;
      }

      .cls-1, .cls-2, .cls-3, .cls-4 {
        fill: none;
        stroke-miterlimit: 10;
      }

      .cls-1, .cls-3, .cls-4 {
        stroke: #ffbb20;
        stroke-linecap: round;
      }

      .cls-1, .cls-4 {
        stroke-width: 5px;
      }

      .cls-2 {
        stroke: url(#linear-gradient);
        stroke-width: 40px;
      }

      .cls-3 {
        stroke-width: 10px;
      }

      .cls-5 {
        fill: #ff5f01;
      }

      .cls-5, .cls-6 {
        stroke-width: 0px;
      }

      .cls-6 {
        fill: #fe5c01;
      }
    </style>
    <linearGradient id="linear-gradient" x1="46.96" y1="177.15" x2="269.77" y2="177.15" gradientUnits="userSpaceOnUse">
      <stop offset=".01" stop-color="#fec222"/>
      <stop offset="1" stop-color="#ff5d00"/>
    </linearGradient>
  </defs>
  <line class="cls-3" x1="8.38" y1="75.84" x2="64.29" y2="125.45"/>
  <line class="cls-3" x1="118.68" y1="5" x2="138.85" y2="68.11"/>
  <g>
    <line class="cls-4" x1="2.5" y1="147.56" x2="4.61" y2="148.74"/>
    <line class="cls-1" x1="19.39" y1="156.98" x2="31.8" y2="163.9"/>
    <line class="cls-4" x1="39.19" y1="168.03" x2="41.3" y2="169.2"/>
  </g>
  <g>
    <line class="cls-4" x1="69.29" y1="51.68" x2="70.68" y2="53.66"/>
    <line class="cls-1" x1="80.39" y1="67.52" x2="88.54" y2="79.16"/>
    <line class="cls-4" x1="93.39" y1="86.09" x2="94.78" y2="88.07"/>
  </g>
  <g>
    <path class="cls-5" d="M226.07,194.43h-58.72c-6.7,0-12.13,5.43-12.13,12.13h0c0,6.7,5.43,12.13,12.13,12.13h58.72v93.09h42.43c.67-83.42,1.35-166.84,2.02-250.25-1.24.04-2.48.08-3.72.12-10.56,7.4-21.12,14.8-31.68,22.2-2.37,1.66-4.74,3.32-7.11,4.98-.1,6.82-.21,13.64-.33,20.45-.47,28.38-1.01,56.76-1.61,85.14Z"/>
    <path class="cls-6" d="M356.17,200.49h-6.78c-3.11,0-6.04.5-8.79,1.48-2.75.99-5.29,2.33-7.62,4.02-2.33,1.69-4.38,3.6-6.14,5.72-1.77,2.12-3.21,4.31-4.34,6.56v-9.32c0-2.12-.99-3.85-2.96-5.19-1.98-1.34-4.38-2.01-7.2-2.01-3.25,0-5.86.67-7.84,2.01-1.98,1.34-2.96,3.07-2.96,5.19v85.76c0,1.84.99,3.53,2.96,5.08,1.98,1.55,4.59,2.33,7.84,2.33s5.96-.77,8.15-2.33c2.19-1.55,3.28-3.25,3.28-5.08v-43.41c0-4.8.74-9.14,2.22-13.02,1.48-3.88,3.42-7.16,5.82-9.85,2.4-2.68,5.12-4.73,8.15-6.14,3.03-1.41,6.17-2.12,9.42-2.12h6.78c2.26,0,4.23-.95,5.93-2.86,1.69-1.91,2.54-4.27,2.54-7.09,0-2.68-.85-4.98-2.54-6.88-1.69-1.91-3.67-2.86-5.93-2.86Z"/>
    <path class="cls-5" d="M461.41,203.88c-1.98-1.41-4.59-2.12-7.84-2.12s-5.75.71-7.94,2.12c-2.19,1.41-3.28,3.11-3.28,5.08v53.15c0,2.83-.56,5.54-1.69,8.15-1.13,2.61-2.65,4.94-4.55,6.99-1.91,2.05-4.2,3.71-6.88,4.98-2.68,1.27-5.51,1.91-8.47,1.91s-5.75-.63-8.36-1.91c-2.61-1.27-4.91-2.93-6.88-4.98-1.98-2.05-3.53-4.38-4.66-6.99-1.13-2.61-1.69-5.33-1.69-8.15v-52.94c0-1.97-1.09-3.71-3.28-5.19-2.19-1.48-4.77-2.22-7.73-2.22s-5.75.74-7.94,2.22c-2.19,1.48-3.28,3.21-3.28,5.19v52.94c0,5.51,1.16,10.77,3.49,15.78,2.33,5.01,5.47,9.46,9.42,13.34,3.95,3.88,8.61,6.95,13.98,9.21,5.36,2.26,11.01,3.39,16.94,3.39s11.54-1.13,16.83-3.39,9.92-5.29,13.87-9.11c3.95-3.81,7.09-8.26,9.42-13.34,2.33-5.08,3.49-10.38,3.49-15.88v-53.15c0-1.97-.99-3.67-2.96-5.08Z"/>
    <path class="cls-5" d="M562,212.77c-3.39-3.81-7.31-6.81-11.75-9-4.45-2.19-9.14-3.28-14.08-3.28-7.2,0-13.2,1.66-18,4.98-4.8,3.32-8.26,7.02-10.38,11.12v-7.62c0-2.12-.95-3.85-2.86-5.19-1.91-1.34-4.27-2.01-7.09-2.01-3.25,0-5.9.67-7.94,2.01-2.05,1.34-3.07,3.07-3.07,5.19v85.76c0,1.84,1.02,3.53,3.07,5.08,2.04,1.55,4.69,2.33,7.94,2.33,2.96,0,5.57-.77,7.84-2.33,2.26-1.55,3.39-3.25,3.39-5.08v-52.52c0-3.39.56-6.46,1.69-9.21,1.13-2.75,2.65-5.08,4.55-6.99s4.09-3.35,6.56-4.34c2.47-.99,4.98-1.48,7.52-1.48,2.96,0,5.75.63,8.36,1.91,2.61,1.27,4.87,2.93,6.78,4.98,1.91,2.05,3.42,4.42,4.55,7.09,1.13,2.68,1.69,5.37,1.69,8.05v52.52c0,2.4,1.2,4.24,3.6,5.51,2.4,1.27,4.87,1.91,7.41,1.91,2.82,0,5.4-.64,7.73-1.91,2.33-1.27,3.49-3.1,3.49-5.51v-52.52c0-5.64-.99-11.01-2.96-16.09-1.98-5.08-4.66-9.53-8.05-13.34Z"/>
    <path class="cls-5" d="M614.52,203.78c-2.12-1.34-4.8-2.01-8.05-2.01s-5.9.67-7.94,2.01c-2.05,1.34-3.07,3.07-3.07,5.19v85.76c0,1.84,1.02,3.53,3.07,5.08,2.04,1.55,4.69,2.33,7.94,2.33s5.93-.77,8.05-2.33c2.12-1.55,3.18-3.25,3.18-5.08v-85.76c0-2.12-1.06-3.85-3.18-5.19Z"/>
    <path class="cls-5" d="M606.47,153.27c-3.67,0-6.74,1.13-9.21,3.39-2.47,2.26-3.71,5.01-3.71,8.26s1.23,5.82,3.71,8.15c2.47,2.33,5.54,3.49,9.21,3.49s6.74-1.16,9.21-3.49c2.47-2.33,3.71-5.05,3.71-8.15s-1.24-6-3.71-8.26c-2.47-2.26-5.54-3.39-9.21-3.39Z"/>
    <path class="cls-5" d="M848.24,301.88c-5.73-5.02-23.84,15.39-48.71,22.55-29.24,8.41-56.16-4.86-59.13-6.38-41.64-21.27-46.21-73.77-46.48-77.53,9.11-8.12,18.21-16.23,27.32-24.35,5.57-5.87-2.15-15.16-8.89-15.25-1.81-3.07-46.97,41.67-48.92,42.57,0,0,0-94.23,0-94.23-.19-5.23-6.38-7.25-11.43-7.2-5.18-.03-10.62,1.99-10.8,7.2v145.48c.84,10.11,21.13,9.68,22.23,0v-26.47l15.46-13.98c8.02,49.46,39.14,87.55,77.25,94.82,40.95,7.81,89.51-20.05,93.17-40.41.24-1.35.91-5.08-1.06-6.81Z"/>
    <path class="cls-5" d="M744.53,296.95c2.54,2.33,5.54,4.06,9,5.19,3.46,1.13,7.09,1.69,10.91,1.69,7.2,0,13.41-1.66,18.64-4.98,5.22-3.32,9.67-7.16,13.34-11.54v7.41c0,1.98.98,3.71,2.96,5.19,1.98,1.48,4.38,2.22,7.2,2.22,3.1,0,5.68-.74,7.73-2.22,2.04-1.48,3.07-3.21,3.07-5.19v-53.15c0-5.22-.78-10.3-2.33-15.25-1.55-4.94-4.02-9.32-7.41-13.13-3.39-3.81-7.8-6.88-13.24-9.21-5.44-2.33-12.04-3.49-19.8-3.49-3.67,0-7.38.35-11.12,1.06-3.74.71-7.17,1.66-10.27,2.86-3.11,1.2-5.65,2.65-7.62,4.34-1.98,1.69-2.96,3.46-2.96,5.29,0,2.54.67,5.05,2.01,7.52,1.34,2.47,3.35,3.71,6.03,3.71.99,0,2.08-.32,3.28-.95,1.2-.64,2.65-1.38,4.34-2.22,1.69-.85,3.81-1.59,6.35-2.22,2.54-.64,5.72-.95,9.53-.95s7.06.67,9.74,2.01c2.68,1.34,4.87,3.11,6.56,5.29,1.69,2.19,2.89,4.66,3.6,7.41.71,2.75,1.06,5.47,1.06,8.15v3.81h-9.32c-7.34,0-14.05.46-20.12,1.38-6.07.92-11.3,2.51-15.67,4.77-4.38,2.26-7.77,5.37-10.17,9.32-2.4,3.95-3.6,8.89-3.6,14.82,0,4.8.74,8.93,2.22,12.39,1.48,3.46,3.49,6.35,6.04,8.68ZM761.37,265.08c1.76-1.98,4.06-3.49,6.88-4.55,2.82-1.06,6.1-1.76,9.85-2.12,3.74-.35,7.66-.53,11.75-.53h5.29v7.84c0,2.54-.67,5.08-2.01,7.62-1.34,2.54-3.11,4.8-5.29,6.78-2.19,1.98-4.63,3.6-7.31,4.87-2.68,1.27-5.37,1.91-8.05,1.91-3.95,0-7.24-1.09-9.85-3.28-2.61-2.19-3.92-5.68-3.92-10.48,0-3.39.88-6.07,2.65-8.05Z"/>
  </g>
  <path class="cls-2" d="M268.5,80.07c-15.25.97-87.97,7.22-144.79,68.97-54.7,59.45-56.69,129.08-56.74,145.1"/>
</svg>